<svg data-v-2cb57da0="" version="1.0" xmlns="http://www.w3.org/2000/svg" xmlns:xlink="http://www.w3.org/1999/xlink" width="100%" height="100%" viewBox="0 0 340.000000 250.000000" preserveAspectRatio="xMidYMid meet" color-interpolation-filters="sRGB" style="margin: auto;"><rect data-v-2cb57da0="" x="0" y="0" width="100%" height="100%" fill="#ffffff" fill-opacity="0" class="background"></rect> <rect data-v-2cb57da0="" x="0" y="0" width="100%" height="100%" fill="url(#watermark)" fill-opacity="1" class="watermarklayer"></rect> <g data-v-2cb57da0="" fill="#ff0844" class="basesvg" transform="translate(67.36968994140625,101.54134750366211)"><g data-gra="path-name" fill-rule="" class="tp-name" transform="matrix(1,0,0,1,0,0)" opacity="1"><g transform="scale(1)"><g><path d="M15.41-21.31L15.41-21.31 15.41-7.66Q15.41-4.09 13.55-1.83 11.69 0.44 8.06 0.44L8.06 0.44Q4.16 0.44 1.88-2.09L1.88-2.09Q0.69-3.72 2.22-4.84L2.22-4.84Q3.94-6.13 5.59-4.19L5.59-4.19Q6.44-3.66 7.5-3.66L7.5-3.66Q9.13-3.66 9.89-4.66 10.66-5.66 10.66-8.03L10.66-8.03 10.66-21.31Q10.66-23.69 13.03-23.69 15.41-23.69 15.41-21.31ZM41.06-11.94L41.06-11.94Q41.06-6.47 38.25-3.02 35.44 0.44 30.47 0.44L30.47 0.44Q25.72 0.44 22.8-2.89 19.88-6.22 19.88-11.94L19.88-11.94Q19.88-17.63 22.78-20.88 25.69-24.13 30.47-24.13 35.25-24.13 38.16-20.88 41.06-17.63 41.06-11.94ZM24.72-11.94L24.72-11.94Q24.72-8.38 26.17-6.02 27.63-3.66 30.47-3.66L30.47-3.66Q33.13-3.66 34.69-5.91 36.25-8.16 36.25-11.94 36.25-15.72 34.69-17.89 33.13-20.06 30.47-20.06 27.81-20.06 26.27-17.91 24.72-15.75 24.72-11.94ZM65.69-11.94L65.69-11.94Q65.69-6.47 62.88-3.02 60.06 0.44 55.09 0.44L55.09 0.44Q50.34 0.44 47.42-2.89 44.5-6.22 44.5-11.94L44.5-11.94Q44.5-17.63 47.41-20.88 50.31-24.13 55.09-24.13 59.88-24.13 62.78-20.88 65.69-17.63 65.69-11.94ZM49.34-11.94L49.34-11.94Q49.34-8.38 50.8-6.02 52.25-3.66 55.09-3.66L55.09-3.66Q57.75-3.66 59.31-5.91 60.88-8.16 60.88-11.94 60.88-15.72 59.31-17.89 57.75-20.06 55.09-20.06 52.44-20.06 50.89-17.91 49.34-15.75 49.34-11.94Z" transform="translate(-1.359375, 24.1299991607666)"></path></g> <!----> <!----> <!----> <!----> <!----> <!----> <g data-gra="path-name-1" fill="#0a0619" transform="translate(67.33062744140625,0)"><g transform="scale(1)"><path d="M11.38 0L11.38 0 4.94 0Q4.03 0 3.47-0.56 2.91-1.13 2.91-2.03L2.91-2.03 2.91-21.59Q2.91-22.53 3.48-23.11 4.06-23.69 5-23.69L5-23.69 10.75-23.69Q19.31-23.69 19.31-17.84L19.31-17.84Q19.31-16.16 18.44-14.72 17.56-13.28 16.09-12.75L16.09-12.75 16.09-12.56Q18.13-12.09 19.33-10.67 20.53-9.25 20.53-6.97L20.53-6.97Q20.53-3.53 18.02-1.77 15.5 0 11.38 0ZM10.47-20.06L7.66-20.06 7.66-14.06 10.41-14.06Q14.72-14.06 14.72-17.16L14.72-17.16Q14.72-18.69 13.69-19.38 12.66-20.06 10.47-20.06L10.47-20.06ZM10.94-10.53L7.66-10.53 7.66-3.66 10.94-3.66Q15.94-3.66 15.94-7.25L15.94-7.25Q15.94-10.53 10.94-10.53L10.94-10.53ZM24-23.69L24-23.69 25.47-23.69Q26.59-23.69 27.06-22.63L27.06-22.63 28.97-17.91Q30.78-13.28 31.03-12.69L31.03-12.69 31.16-12.69Q32.63-16.25 33.28-17.91L33.28-17.91 35.03-22.22Q35.28-22.88 35.89-23.28 36.5-23.69 37.25-23.69L37.25-23.69 38.19-23.69Q39.28-23.69 39.64-23.09 40-22.5 39.53-21.53L39.53-21.53 33.44-8.69 33.44-2.38Q33.44 0 31.06 0 28.69 0 28.69-2.38L28.69-2.38 28.69-8.69 22.63-21.5Q22.19-22.5 22.56-23.09 22.94-23.69 24-23.69ZM56.69 4.97L56.69 4.97 42.16 4.97Q40.78 4.97 40.78 3.59 40.78 2.22 42.16 2.22L42.16 2.22 56.69 2.22Q58.06 2.22 58.06 3.59 58.06 4.97 56.69 4.97ZM63.47-23.69L63.47-23.69 69.16-23.69Q78.44-23.69 78.44-16.25L78.44-16.25Q78.44-12.38 75.89-10.39 73.34-8.41 69.28-8.41L69.28-8.41 66.13-8.41 66.13-2.38Q66.13 0 63.75 0 61.38 0 61.38-2.38L61.38-2.38 61.38-21.59Q61.38-22.53 61.95-23.11 62.53-23.69 63.47-23.69ZM68.81-19.94L66.13-19.94 66.13-12.16 68.97-12.16Q73.78-12.16 73.78-16.25L73.78-16.25Q73.78-18.25 72.56-19.09 71.34-19.94 68.81-19.94L68.81-19.94ZM95.06 0L95.06 0 84.81 0Q83.88 0 83.3-0.58 82.72-1.16 82.72-2.09L82.72-2.09 82.72-21.31Q82.72-23.69 85.09-23.69 87.47-23.69 87.47-21.31L87.47-21.31 87.47-3.97 95.06-3.97Q97.06-3.97 97.06-1.97L97.06-1.97Q97.06 0 95.06 0ZM114.84-10.25L114.84-10.25 114.84-21.41Q114.84-23.69 117.13-23.69 119.41-23.69 119.41-21.41L119.41-21.41 119.41-10.66Q119.41 0.44 110.25 0.44L110.25 0.44Q101.03 0.44 101.03-10.66L101.03-10.66 101.03-21.31Q101.03-23.69 103.41-23.69 105.78-23.69 105.78-21.31L105.78-21.31 105.78-10.25Q105.78-6.69 106.92-5.17 108.06-3.66 110.25-3.66L110.25-3.66Q112.5-3.66 113.67-5.19 114.84-6.72 114.84-10.25ZM138.53-1.69L138.53-1.69Q136.16 0.44 132.13 0.44L132.13 0.44Q128.34 0.44 125.09-1.69L125.09-1.69Q123.5-3 124.81-4.56L124.81-4.56Q126.22-6.25 128.06-4.91L128.06-4.91Q130.16-3.66 132.25-3.66L132.25-3.66Q134.06-3.66 135.03-4.38 136-5.09 136-6.38L136-6.38Q136-7 135.8-7.45 135.59-7.91 134.98-8.31 134.38-8.72 133.97-8.91 133.56-9.09 132.47-9.56L132.47-9.56 129.28-10.91Q124.5-12.91 124.5-17.28L124.5-17.28Q124.5-20.22 126.8-22.17 129.09-24.13 132.69-24.13L132.69-24.13Q136.06-24.13 138.75-22.25L138.75-22.25Q140.13-21.06 138.97-19.69L138.97-19.69Q137.66-18.09 136.06-19.22L136.06-19.22Q134.44-20.06 132.69-20.06L132.69-20.06Q131.09-20.06 130.17-19.39 129.25-18.72 129.25-17.56L129.25-17.56Q129.25-16.47 130.09-15.86 130.94-15.25 132.69-14.56L132.69-14.56Q132.88-14.5 132.97-14.47L132.97-14.47 136.06-13.16Q138.38-12.19 139.61-10.67 140.84-9.16 140.84-6.72L140.84-6.72Q140.84-3.72 138.53-1.69Z" transform="translate(-2.9100000858306885, 24.1299991607666)"></path></g></g></g></g> <g data-gra="path-slogan" fill-rule="" class="tp-slogan" fill="#0a0619" transform="matrix(1,0,0,1,28.604705810546875,35.099998474121094)" opacity="1"><!----> <!----> <g transform="scale(1, 1)"><g transform="scale(1.3200000000000003)"><path d="M2.30-8.58L6.61-1.64L6.61-8.58L7.73-8.58L7.73 0L6.42 0L2.06-6.94L2.02-6.94L2.02 0L0.89 0L0.89-8.58L2.30-8.58ZM18.31-4.27L18.31-4.27Q18.13-7.64 15.31-7.83L15.31-7.83Q12.45-7.69 12.31-4.27L12.31-4.27Q12.45-0.94 15.31-0.80L15.31-0.80Q18.13-0.98 18.31-4.27ZM19.48-4.27L19.48-4.27Q19.20 0 15.31 0.14L15.31 0.14Q11.38 0 11.09-4.27L11.09-4.27Q11.33-8.72 15.31-8.81L15.31-8.81Q19.20-8.67 19.48-4.27ZM26.36 0L22.89 0L22.89-8.58L26.41-8.58Q29.88-8.39 30.02-4.41L30.02-4.41Q29.83-0.09 26.36 0L26.36 0ZM26.22-7.64L24.06-7.64L24.06-0.98L26.31-0.98Q28.75-1.13 28.84-4.31L28.84-4.31Q28.80-7.55 26.22-7.64L26.22-7.64ZM34.78-1.03L39.94-1.03L39.94 0L33.61 0L33.61-8.58L39.84-8.58L39.84-7.59L34.78-7.59L34.78-4.92L39.47-4.92L39.47-3.89L34.78-3.89L34.78-1.03ZM51.69-8.58L51.69 0L50.56 0L50.56-5.06Q50.56-5.77 50.56-7.22L50.56-7.22L48.13 0L46.95 0L44.56-7.22L44.52-7.22Q44.52-6.70 44.56-5.67L44.56-5.67Q44.56-5.16 44.56-5.06L44.56-5.06L44.56 0L43.39 0L43.39-8.58L45.08-8.58L47.56-1.31L50-8.58L51.69-8.58ZM56.69-1.03L61.84-1.03L61.84 0L55.52 0L55.52-8.58L61.75-8.58L61.75-7.59L56.69-7.59L56.69-4.92L61.38-4.92L61.38-3.89L56.69-3.89L56.69-1.03ZM71.63-6.09L71.63-6.09L70.55-6.09Q70.45-7.73 68.39-7.83L68.39-7.83Q66.47-7.78 66.47-6.33L66.47-6.33Q66.47-5.39 67.50-5.25L67.50-5.25L69.94-4.69Q71.86-4.22 71.86-2.34L71.86-2.34Q71.81 0.05 68.48 0.14L68.48 0.14Q66.66 0.14 65.91-0.61L65.91-0.61Q64.97-1.31 65.02-2.77L65.02-2.77L66.14-2.77Q66.19-0.80 68.48-0.75L68.48-0.75Q70.73-0.80 70.78-2.20L70.78-2.20Q70.97-3.38 68.91-3.75L68.91-3.75L67.13-4.13Q65.30-4.64 65.30-6.19L65.30-6.19Q65.44-8.72 68.30-8.81L68.30-8.81Q71.53-8.81 71.63-6.09ZM81.59-6.09L81.59-6.09L80.52-6.09Q80.42-7.73 78.36-7.83L78.36-7.83Q76.44-7.78 76.44-6.33L76.44-6.33Q76.44-5.39 77.47-5.25L77.47-5.25L79.91-4.69Q81.83-4.22 81.83-2.34L81.83-2.34Q81.78 0.05 78.45 0.14L78.45 0.14Q76.63 0.14 75.88-0.61L75.88-0.61Q74.94-1.31 74.98-2.77L74.98-2.77L76.11-2.77Q76.16-0.80 78.45-0.75L78.45-0.75Q80.70-0.80 80.75-2.20L80.75-2.20Q80.94-3.38 78.88-3.75L78.88-3.75L77.09-4.13Q75.27-4.64 75.27-6.19L75.27-6.19Q75.41-8.72 78.27-8.81L78.27-8.81Q81.50-8.81 81.59-6.09ZM90.95 0L90.11-2.48L86.64-2.48L85.75 0L84.58 0L87.81-8.58L89.13-8.58L92.22 0L90.95 0ZM88.38-7.31L87.02-3.52L89.69-3.52L88.42-7.31L88.38-7.31ZM101.67-3.61L99.05-3.61L99.05-4.59L102.80-4.59L102.80 0L102.05 0L101.77-1.08Q100.78 0.09 98.95 0.14L98.95 0.14Q97.22 0.14 96.28-0.75L96.28-0.75Q94.88-2.06 94.92-4.36L94.92-4.36Q95.25-8.63 99-8.81L99-8.81Q102.19-8.63 102.66-6L102.66-6L101.53-6Q101.06-7.78 98.95-7.83L98.95-7.83Q96.28-7.64 96.14-4.31L96.14-4.31Q96.14-0.75 99-0.75L99-0.75Q100.03-0.75 100.78-1.31L100.78-1.31Q101.72-2.06 101.67-3.61L101.67-3.61ZM107.89-1.03L113.05-1.03L113.05 0L106.72 0L106.72-8.58L112.95-8.58L112.95-7.59L107.89-7.59L107.89-4.92L112.58-4.92L112.58-3.89L107.89-3.89L107.89-1.03Z" transform="translate(-0.890625, 8.8125)"></path></g></g></g></g><defs v-gra="od"></defs></svg>